# Blender 4.5.1 LTS
# www.blender.org
o Cube.004
v -0.000000 0.525750 -0.500000
v 0.000000 0.525750 0.500000
v 0.025750 0.500000 -0.500000
v 0.025750 0.500000 0.500000
v -0.025750 0.500000 -0.500000
v -0.025750 0.500000 0.500000
v -0.000000 0.474250 -0.500000
v 0.000000 0.474250 0.500000
v 0.066944 0.510838 -0.500000
v 0.077782 0.500000 -0.500000
v 0.066944 0.510838 0.500000
v 0.056107 0.500000 -0.500000
v 0.077782 0.521675 -0.500000
v 0.056107 0.521675 -0.500000
v 0.056107 0.521675 0.500000
v 0.045269 0.510838 -0.500000
v 0.045269 0.510838 0.500000
v 0.056107 0.500000 0.500000
v 0.066944 0.489162 0.500000
v 0.045269 0.489162 0.500000
v 0.056107 0.478325 0.500000
v 0.045269 0.489162 -0.500000
v 0.056107 0.478325 -0.500000
v 0.066944 0.489162 -0.500000
v 0.077782 0.478325 -0.500000
v 0.088620 0.489162 -0.500000
v 0.077782 0.478325 0.500000
v 0.088620 0.489162 0.500000
v 0.077782 0.500000 0.500000
v 0.088620 0.510838 0.500000
v 0.077782 0.521675 0.500000
v 0.088620 0.510838 -0.500000
v -0.069537 0.521577 -0.500000
v -0.065327 0.521162 -0.500000
v -0.069537 0.521577 0.500000
v -0.073746 0.521162 -0.500000
v -0.077794 0.519934 -0.500000
v -0.073746 0.521162 0.500000
v -0.077794 0.519934 0.500000
v -0.081524 0.517940 0.500000
v -0.084794 0.515257 0.500000
v -0.081524 0.517940 -0.500000
v -0.084794 0.515257 -0.500000
v -0.087477 0.511987 -0.500000
v -0.089471 0.508257 -0.500000
v -0.087477 0.511987 0.500000
v -0.089471 0.508257 0.500000
v -0.090699 0.504209 0.500000
v -0.091113 0.500000 0.500000
v -0.090699 0.504209 -0.500000
v -0.091113 0.500000 -0.500000
v -0.090699 0.495791 -0.500000
v -0.089471 0.491743 -0.500000
v -0.090699 0.495790 0.500000
v -0.089471 0.491743 0.500000
v -0.087477 0.488012 0.500000
v -0.084794 0.484743 0.500000
v -0.087477 0.488013 -0.500000
v -0.084794 0.484743 -0.500000
v -0.081524 0.482059 -0.500000
v -0.077794 0.480066 -0.500000
v -0.081524 0.482059 0.500000
v -0.077794 0.480066 0.500000
v -0.073746 0.478838 0.500000
v -0.069537 0.478423 0.500000
v -0.073746 0.478838 -0.500000
v -0.069537 0.478423 -0.500000
v -0.065327 0.478838 -0.500000
v -0.061280 0.480066 -0.500000
v -0.065327 0.478838 0.500000
v -0.061280 0.480066 0.500000
v -0.057549 0.482059 0.500000
v -0.054280 0.484743 0.500000
v -0.057549 0.482059 -0.500000
v -0.054280 0.484743 -0.500000
v -0.051596 0.488013 -0.500000
v -0.049602 0.491743 -0.500000
v -0.051596 0.488012 0.500000
v -0.049602 0.491743 0.500000
v -0.048375 0.495790 0.500000
v -0.047960 0.500000 0.500000
v -0.048375 0.495791 -0.500000
v -0.047960 0.500000 -0.500000
v -0.048375 0.504209 -0.500000
v -0.049602 0.508257 -0.500000
v -0.048375 0.504209 0.500000
v -0.049602 0.508257 0.500000
v -0.051596 0.511987 0.500000
v -0.054280 0.515257 0.500000
v -0.051596 0.511987 -0.500000
v -0.054280 0.515257 -0.500000
v -0.057549 0.517940 -0.500000
v -0.061280 0.519934 -0.500000
v -0.057549 0.517940 0.500000
v -0.061280 0.519934 0.500000
v -0.065327 0.521162 0.500000
vn 0.7071 0.7071 -0.0000
vn 0.7071 -0.7071 -0.0000
vn -0.7071 -0.7071 -0.0000
vn -0.7071 0.7071 -0.0000
vn -0.0000 -0.0000 -1.0000
vn -0.0000 -0.0000 1.0000
vn 0.0980 0.9952 -0.0000
vn -0.0980 0.9952 -0.0000
vn -0.2903 0.9569 -0.0000
vn -0.4714 0.8819 -0.0000
vn -0.6344 0.7730 -0.0000
vn -0.7730 0.6344 -0.0000
vn -0.8819 0.4714 -0.0000
vn -0.9569 0.2903 -0.0000
vn -0.9952 0.0980 -0.0000
vn -0.9952 -0.0980 -0.0000
vn -0.9569 -0.2903 -0.0000
vn -0.8819 -0.4714 -0.0000
vn -0.7730 -0.6344 -0.0000
vn -0.6344 -0.7730 -0.0000
vn -0.4714 -0.8819 -0.0000
vn -0.2903 -0.9569 -0.0000
vn -0.0980 -0.9952 -0.0000
vn 0.0980 -0.9952 -0.0000
vn 0.2903 -0.9569 -0.0000
vn 0.4714 -0.8819 -0.0000
vn 0.6344 -0.7730 -0.0000
vn 0.7730 -0.6344 -0.0000
vn 0.8819 -0.4714 -0.0000
vn 0.9569 -0.2903 -0.0000
vn 0.9952 -0.0980 -0.0000
vn 0.9952 0.0980 -0.0000
vn 0.9569 0.2903 -0.0000
vn 0.8819 0.4714 -0.0000
vn 0.7730 0.6344 -0.0000
vn 0.6344 0.7730 -0.0000
vn 0.4714 0.8819 -0.0000
vn 0.2903 0.9569 -0.0000
s 0
f 1//1 2//1 4//1 3//1
f 3//2 4//2 8//2 7//2
f 7//3 8//3 6//3 5//3
f 5//4 6//4 2//4 1//4
f 3//5 7//5 5//5 1//5
f 8//6 4//6 2//6 6//6
f 10//5 9//5 13//5 32//5
f 10//5 24//5 12//5 9//5
f 11//1 9//1 14//1 15//1
f 9//4 11//4 31//4 13//4
f 9//5 12//5 16//5 14//5
f 16//4 17//4 15//4 14//4
f 12//3 18//3 17//3 16//3
f 18//6 11//6 15//6 17//6
f 19//6 18//6 20//6 21//6
f 19//6 29//6 11//6 18//6
f 18//4 12//4 22//4 20//4
f 23//3 21//3 20//3 22//3
f 12//5 24//5 23//5 22//5
f 24//2 19//2 21//2 23//2
f 24//5 10//5 26//5 25//5
f 19//3 24//3 25//3 27//3
f 26//2 28//2 27//2 25//2
f 29//6 19//6 27//6 28//6
f 10//1 29//1 28//1 26//1
f 11//6 29//6 30//6 31//6
f 29//2 10//2 32//2 30//2
f 13//1 31//1 30//1 32//1
f 33//5 34//5 93//5 92//5 91//5 90//5 85//5 84//5 83//5 82//5 77//5 76//5 75//5 74//5 69//5 68//5 67//5 66//5 61//5 60//5 59//5 58//5 53//5 52//5 51//5 50//5 45//5 44//5 43//5 42//5 37//5 36//5
f 33//7 35//7 96//7 34//7
f 36//8 38//8 35//8 33//8
f 37//9 39//9 38//9 36//9
f 96//6 35//6 38//6 39//6 40//6 41//6 46//6 47//6 48//6 49//6 54//6 55//6 56//6 57//6 62//6 63//6 64//6 65//6 70//6 71//6 72//6 73//6 78//6 79//6 80//6 81//6 86//6 87//6 88//6 89//6 94//6 95//6
f 42//10 40//10 39//10 37//10
f 43//11 41//11 40//11 42//11
f 44//12 46//12 41//12 43//12
f 45//13 47//13 46//13 44//13
f 50//14 48//14 47//14 45//14
f 51//15 49//15 48//15 50//15
f 52//16 54//16 49//16 51//16
f 53//17 55//17 54//17 52//17
f 58//18 56//18 55//18 53//18
f 59//19 57//19 56//19 58//19
f 60//20 62//20 57//20 59//20
f 61//21 63//21 62//21 60//21
f 66//22 64//22 63//22 61//22
f 67//23 65//23 64//23 66//23
f 68//24 70//24 65//24 67//24
f 69//25 71//25 70//25 68//25
f 74//26 72//26 71//26 69//26
f 75//27 73//27 72//27 74//27
f 76//28 78//28 73//28 75//28
f 77//29 79//29 78//29 76//29
f 82//30 80//30 79//30 77//30
f 83//31 81//31 80//31 82//31
f 84//32 86//32 81//32 83//32
f 85//33 87//33 86//33 84//33
f 90//34 88//34 87//34 85//34
f 91//35 89//35 88//35 90//35
f 92//36 94//36 89//36 91//36
f 93//37 95//37 94//37 92//37
f 34//38 96//38 95//38 93//38
